<svg width="17" height="17" viewBox="0 0 17 17" fill="none" xmlns="http://www.w3.org/2000/svg">
<path d="M1.80775 17C1.30258 17 0.875 16.825 0.525 16.475C0.175 16.125 0 15.6974 0 15.1923V1.80775C0 1.30258 0.175 0.875 0.525 0.525C0.875 0.175 1.30258 0 1.80775 0H8.55775C8.77025 0 8.94833 0.0719168 9.092 0.21575C9.23583 0.359583 9.30775 0.53775 9.30775 0.75025C9.30775 0.962917 9.23583 1.141 9.092 1.2845C8.94833 1.42817 8.77025 1.5 8.55775 1.5H1.80775C1.71792 1.5 1.64417 1.52883 1.5865 1.5865C1.52883 1.64417 1.5 1.71792 1.5 1.80775V15.1923C1.5 15.2821 1.52883 15.3558 1.5865 15.4135C1.64417 15.4712 1.71792 15.5 1.80775 15.5H15.1923C15.2821 15.5 15.3558 15.4712 15.4135 15.4135C15.4712 15.3558 15.5 15.2821 15.5 15.1923V8.44225C15.5 8.22975 15.5719 8.05167 15.7158 7.908C15.8596 7.76417 16.0378 7.69225 16.2502 7.69225C16.4629 7.69225 16.641 7.76417 16.7845 7.908C16.9282 8.05167 17 8.22975 17 8.44225V15.1923C17 15.6974 16.825 16.125 16.475 16.475C16.125 16.825 15.6974 17 15.1923 17H1.80775ZM2.88475 13.1923H14.1152L10.625 8.5385L7.625 12.4327L5.5 9.73075L2.88475 13.1923ZM13.5 3.5H12.25C12.0375 3.5 11.8593 3.42808 11.7155 3.28425C11.5718 3.14042 11.5 2.96225 11.5 2.74975C11.5 2.53708 11.5718 2.359 11.7155 2.2155C11.8593 2.07183 12.0375 2 12.25 2H13.5V0.75C13.5 0.5375 13.5719 0.359417 13.7158 0.21575C13.8596 0.0719168 14.0378 0 14.2503 0C14.4629 0 14.641 0.0719168 14.7845 0.21575C14.9282 0.359417 15 0.5375 15 0.75V2H16.25C16.4625 2 16.6406 2.07192 16.7843 2.21575C16.9281 2.35958 17 2.53775 17 2.75025C17 2.96292 16.9281 3.141 16.7843 3.2845C16.6406 3.42817 16.4625 3.5 16.25 3.5H15V4.75C15 4.9625 14.9281 5.14067 14.7843 5.2845C14.6404 5.42817 14.4622 5.5 14.2498 5.5C14.0371 5.5 13.859 5.42817 13.7155 5.2845C13.5718 5.14067 13.5 4.9625 13.5 4.75V3.5Z" fill="#1C1B1F"/>
</svg>
